<?xml version="1.0" encoding="UTF-8" standalone="no"?>
<!DOCTYPE svg PUBLIC "-//W3C//DTD SVG 1.1//EN" "http://www.w3.org/Graphics/SVG/1.1/DTD/svg11.dtd">
<!-- Created with Vectornator (http://vectornator.io/) -->
<svg height="100%" stroke-miterlimit="10" style="fill-rule:nonzero;clip-rule:evenodd;stroke-linecap:round;stroke-linejoin:round;" version="1.1" viewBox="0 0 1372.33 950.333" width="100%" xml:space="preserve" xmlns="http://www.w3.org/2000/svg" xmlns:vectornator="http://vectornator.io" xmlns:xlink="http://www.w3.org/1999/xlink">
<defs/>
<g id="Layer-1" vectornator:layerName="Layer 1">
<g opacity="1" vectornator:layerName="Group 20">
<g opacity="1" vectornator:layerName="Group 2">
<path d="M282.465 526.839L306.864 526.839L306.864 343.845L282.465 343.845L282.465 526.839Z" fill="#000000" fill-rule="nonzero" opacity="1" stroke="none" vectornator:layerName="Curve 8"/>
<path d="M415.672 424.922L513.523 343.845L477.687 343.845L364.078 437.63L364.078 343.845L339.679 343.845L339.679 526.839L364.078 526.839L364.078 467.366L397.881 439.409L484.295 526.839L516.573 526.839L415.672 424.922Z" fill="#000000" fill-rule="nonzero" opacity="1" stroke="none" vectornator:layerName="Curve 9"/>
<path d="M568.422 508.54L568.422 442.967L688.893 442.967L688.893 424.667L568.422 424.667L568.422 362.144L693.468 362.144L693.468 343.845L544.022 343.845L544.022 526.839L694.992 526.839L694.992 508.54L568.422 508.54Z" fill="#000000" fill-rule="nonzero" opacity="1" stroke="none" vectornator:layerName="Curve 10"/>
<path d="M885.611 343.845L885.611 497.865L760.565 343.845L736.166 343.845L736.166 526.839L760.565 526.839L760.565 372.819L885.611 526.839L910.011 526.839L910.011 343.845L885.611 343.845Z" fill="#000000" fill-rule="nonzero" opacity="1" stroke="none" vectornator:layerName="Curve 11"/>
<path d="M974.059 392.643C974.059 372.057 994.137 360.619 1030.48 360.619C1062.51 360.619 1090.46 377.902 1090.46 377.902L1099.1 360.619C1099.1 360.619 1074.71 340.795 1030.48 340.795C978.633 340.795 949.659 359.349 949.659 392.643C949.659 464.316 1086.91 426.192 1086.91 478.041C1086.91 498.628 1064.54 510.065 1024.38 510.065C989.308 510.065 958.301 491.257 958.301 491.257L949.659 508.54C949.659 508.54 977.109 529.889 1024.38 529.889C1080.3 529.889 1111.3 511.336 1111.3 478.041C1111.3 406.368 974.059 444.492 974.059 392.643Z" fill="#000000" fill-rule="nonzero" opacity="1" stroke="none" vectornator:layerName="Curve 12"/>
</g>
<g opacity="1" vectornator:layerName="Group 1">
<path d="M553.69 602.824C560.342 600.981 563.468 596.493 563.468 589.199C563.468 579.1 557.697 574.452 544.953 574.452L512.012 574.452L512.012 632.159L544.953 632.159C558.338 632.159 564.43 627.35 564.43 616.931C564.43 609.236 560.983 604.588 553.69 602.824ZM515.859 577.337L544.953 577.337C555.212 577.337 559.861 581.104 559.861 589.359C559.861 597.615 555.212 601.382 544.953 601.382L515.859 601.382L515.859 577.337ZM544.953 629.274L515.859 629.274L515.859 604.267L544.953 604.267C555.854 604.267 560.823 608.194 560.823 616.77C560.823 625.346 555.854 629.274 544.953 629.274Z" fill="#000000" fill-rule="nonzero" opacity="1" stroke="none"/>
<path d="M582.704 629.274L582.704 604.267L623.58 604.267L623.58 601.382L582.704 601.382L582.704 577.337L625.022 577.337L625.022 574.452L578.856 574.452L578.856 632.159L625.503 632.159L625.503 629.274L582.704 629.274Z" fill="#000000" fill-rule="nonzero" opacity="1" stroke="none"/>
<path d="M690.905 632.159L695.233 632.159L666.86 574.452L663.013 574.452L634.64 632.159L638.888 632.159L646.983 615.809L682.89 615.809L690.905 632.159ZM648.346 612.923L664.937 579.261L681.447 612.923L648.346 612.923Z" fill="#000000" fill-rule="nonzero" opacity="1" stroke="none"/>
<path d="M751.498 574.452L751.498 606.672C751.498 620.297 742.361 629.514 728.896 629.514C715.35 629.514 706.294 620.297 706.294 606.672L706.294 574.452L702.446 574.452L702.446 606.672C702.446 622.461 713.106 633.121 728.896 633.121C744.685 633.121 755.345 622.461 755.345 606.672L755.345 574.452L751.498 574.452Z" fill="#000000" fill-rule="nonzero" opacity="1" stroke="none"/>
<path d="M821.227 574.452L765.924 574.452L765.924 577.337L791.652 577.337L791.652 632.159L795.499 632.159L795.499 577.337L821.227 577.337L821.227 574.452Z" fill="#000000" fill-rule="nonzero" opacity="1" stroke="none"/>
<path d="M880.538 574.452L855.611 605.71L830.685 574.452L826.036 574.452L853.688 609.076L853.688 632.159L857.535 632.159L857.535 609.076L885.186 574.452L880.538 574.452Z" fill="#000000" fill-rule="nonzero" opacity="1" stroke="none"/>
</g>
</g>
</g>
</svg>
