<?xml version="1.0" encoding="UTF-8" standalone="no"?>
<!DOCTYPE svg PUBLIC "-//W3C//DTD SVG 1.1//EN" "http://www.w3.org/Graphics/SVG/1.1/DTD/svg11.dtd">
<!-- Created with Vectornator (http://vectornator.io/) -->
<svg height="100%" stroke-miterlimit="10" style="fill-rule:nonzero;clip-rule:evenodd;stroke-linecap:round;stroke-linejoin:round;" version="1.1" viewBox="0 0 1372.33 950.333" width="100%" xml:space="preserve" xmlns="http://www.w3.org/2000/svg" xmlns:vectornator="http://vectornator.io" xmlns:xlink="http://www.w3.org/1999/xlink">
<defs/>
<g id="Layer-1" vectornator:layerName="Layer 1">
<g opacity="1" vectornator:layerName="Group 26">
<path d="M99.2929 558.791C97.3628 558.03 96.4855 556.422 96.661 553.965L96.5732 552.649C96.5732 552.415 96.6317 552.064 96.7487 551.597C96.7487 551.889 100.112 544.271 106.838 528.742C113.564 513.214 119.632 498.401 125.042 484.306C130.453 470.21 133.158 460.998 133.158 456.67C133.158 455.676 132.982 455.003 132.631 454.652C132.397 454.535 131.637 454.243 130.35 453.775C128.946 453.366 127.923 452.956 127.28 452.547C125.993 451.669 125.349 450.558 125.349 449.213C125.349 447.926 125.905 446.815 127.016 445.879C127.894 445.06 128.873 444.431 129.955 443.993C131.037 443.554 132.105 443.335 133.158 443.335C134.62 443.335 135.907 443.715 137.018 444.475C139.825 446.347 141.229 448.891 141.229 452.108C141.229 453.336 141.083 454.477 140.79 455.53C140.264 457.401 140.001 459.068 140.001 460.53C140.001 460.998 140.059 461.759 140.176 462.811L141.755 461.057C143.51 458.893 144.329 457.898 144.212 458.074L152.634 445.704C158.951 436.404 163.425 429.912 166.057 426.227C169.859 420.788 174.158 415.67 178.954 410.874C180.826 408.885 183.662 407.335 187.464 406.224C188.107 406.048 188.722 405.961 189.306 405.961C191.529 405.961 192.874 407.569 193.342 410.786C193.576 411.722 193.693 412.833 193.693 414.12C193.693 415.407 193.547 416.489 193.254 417.366C192.494 420.466 191.061 425.788 188.955 433.333C187.259 439.416 186.148 443.422 185.622 445.353C184.744 448.511 182.288 457.986 178.252 473.778L175.883 483.253C176 483.37 176.41 483.545 177.112 483.779L178.428 481.674C181.001 477.814 182.843 475.182 183.955 473.778L187.376 469.04C191.821 462.841 195.725 457.518 199.089 453.073C202.452 448.628 205.888 444.3 209.397 440.089C217.352 430.38 227.002 419.793 238.349 408.33C241.975 404.879 247.181 400.463 253.965 395.082L260.37 389.906C260.896 389.438 261.744 388.911 262.914 388.327C264.201 387.683 265.341 387.361 266.335 387.361C267.622 387.361 268.704 387.859 269.582 388.853C270.459 389.847 270.985 391.222 271.161 392.976C271.278 394.029 271.336 394.819 271.336 395.345C271.336 396.983 271.102 398.562 270.634 400.083C266.482 411.663 261.832 424.268 256.685 437.895L253.527 446.493C252.766 448.774 251.83 451.465 250.719 454.565C247.736 462.519 245.075 469.391 242.735 475.182C234.898 495.536 229.078 510.83 225.277 521.066C223.814 525.043 222.265 529.927 220.627 535.717C220.217 537.062 219.647 538.948 218.916 541.376C218.185 543.803 217.527 545.865 216.942 547.561C216.825 548.087 216.533 548.599 216.065 549.096C215.597 549.593 215.275 549.93 215.1 550.105C214.866 549.871 214.427 549.52 213.784 549.052C213.14 548.584 212.731 548.058 212.555 547.473C212.38 546.947 212.292 546.391 212.292 545.806C212.292 544.987 212.439 544.139 212.731 543.262L215.802 533.787C219.486 522.323 222.089 514.398 223.61 510.011C226.476 501.706 230.95 489.248 237.033 472.637C237.91 470.415 238.861 467.958 239.884 465.268C240.908 462.577 242.004 459.653 243.174 456.495C244.051 454.272 245.674 450.061 248.043 443.861C250.412 437.661 252.532 432.017 254.404 426.929C256.919 420.261 259.989 411.312 263.616 400.083C263.85 399.615 263.981 399.015 264.011 398.284C264.04 397.553 264.084 396.954 264.142 396.486C262.095 397.304 260.223 398.343 258.527 399.6C256.831 400.858 254.901 402.481 252.737 404.469L250.631 406.312C248.292 408.359 245.938 410.596 243.569 413.023C241.2 415.45 239.811 416.869 239.402 417.278L236.331 420.437C230.365 426.929 224.136 433.772 217.644 440.966C211.971 447.283 206.487 454.053 201.194 461.276C195.901 468.499 190.418 476.498 184.744 485.271C182.288 489.073 178.895 495.068 174.567 503.256C172.813 506.648 171.467 509.193 170.532 510.889C170.415 511.123 170.108 511.722 169.61 512.687C169.113 513.652 168.558 514.398 167.944 514.924C167.329 515.451 166.613 515.714 165.794 515.714C165.619 515.714 165.238 515.656 164.654 515.539C163.893 515.305 163.294 514.705 162.855 513.74C162.416 512.775 162.197 511.62 162.197 510.275C162.197 509.339 162.314 508.432 162.548 507.555L164.829 497.115C167.636 484.364 169.713 475.269 171.058 469.83C171.643 467.549 172.359 465.151 173.207 462.636C174.056 460.121 174.597 458.512 174.831 457.811L176.41 453.073C176.468 452.898 176.541 452.722 176.629 452.547C176.717 452.371 176.79 452.196 176.848 452.02L183.604 424.999C184.481 421.782 184.861 418.916 184.744 416.401L183.253 417.717C181.966 418.887 181.089 419.822 180.621 420.524C169.391 435.38 160.559 447.37 154.126 456.495C151.611 460.121 147.838 466.145 142.808 474.568L137.807 482.902C135.117 487.289 132.69 491.383 130.526 495.185C127.426 500.39 125.291 504.163 124.121 506.502C120.612 513.989 115.465 525.218 108.68 540.191C107.452 542.706 106.399 545.748 105.522 549.316L105.522 549.579C105.522 550.339 105.756 551.187 106.224 552.123C106.633 552.708 106.838 553.322 106.838 553.965C106.838 555.018 106.312 556.129 105.259 557.299C104.206 558.527 102.919 559.142 101.399 559.142C100.638 559.142 99.9363 559.025 99.2929 558.791Z" fill="#000000" fill-rule="nonzero" opacity="1" stroke="none"/>
<path d="M275.196 468.602C274.846 468.368 274.334 468.061 273.661 467.681C272.989 467.3 272.462 466.891 272.082 466.452C271.702 466.014 271.512 465.531 271.512 465.005C271.512 464.361 271.789 463.703 272.345 463.031C272.901 462.358 273.588 461.905 274.407 461.671C275.46 461.32 276.337 461.144 277.039 461.144C277.39 461.144 277.799 461.203 278.267 461.32C278.91 461.554 279.525 462.036 280.109 462.767C280.694 463.499 280.987 464.157 280.987 464.741C280.987 465.268 280.811 465.736 280.46 466.145C280.109 466.555 279.642 466.876 279.057 467.11L275.196 468.602ZM251.333 515.451C250.397 515.451 249.637 515.158 249.052 514.573C248.467 513.989 248.146 513.17 248.087 512.117C247.795 507.789 248.906 502.993 251.421 497.729C255.574 489.482 260.574 481.879 266.423 474.918C266.891 474.334 267.534 473.719 268.353 473.076C269.172 472.491 269.816 472.199 270.283 472.199C270.693 472.199 271.073 472.403 271.424 472.813C271.833 473.281 272.155 473.851 272.389 474.524C272.623 475.196 272.681 475.737 272.564 476.147C272.155 477.199 271.161 478.632 269.582 480.446C269.406 480.68 269.084 480.972 268.617 481.323C268.149 481.674 267.827 481.996 267.651 482.288L264.669 487.464C261.978 492.026 260.311 494.775 259.668 495.711C257.153 499.454 255.31 503.607 254.141 508.169C254.316 508.461 254.652 508.988 255.15 509.748C255.647 510.509 255.895 511.21 255.895 511.854C255.895 512.848 255.442 513.696 254.535 514.398C253.629 515.1 252.561 515.451 251.333 515.451Z" fill="#000000" fill-rule="nonzero" opacity="1" stroke="none"/>
<path d="M300.902 525.891C299.791 526.125 298.533 526.242 297.13 526.242C293.971 526.242 291.032 525.511 288.312 524.049C285.593 522.586 283.531 520.335 282.127 517.293C280.139 512.965 279.144 508.842 279.144 504.923C279.144 503.695 279.232 502.466 279.408 501.238C279.583 500.127 280.022 496.852 280.724 491.412C280.841 490.535 280.972 489.584 281.118 488.561C281.265 487.537 281.425 486.411 281.601 485.183C280.431 483.896 279.846 482.931 279.846 482.288C279.846 481.528 280.548 480.621 281.952 479.568C282.829 478.925 283.502 478.194 283.97 477.375C284.438 476.556 284.847 475.503 285.198 474.217C285.841 472.286 287.157 469.128 289.146 464.741C289.555 463.747 290.608 461.583 292.304 458.249L293.883 455.003L294.936 452.722C296.223 449.915 297.247 447.838 298.007 446.493L301.165 441.054C303.154 437.661 304.835 434.869 306.21 432.675C307.584 430.482 309.061 428.362 310.64 426.315C315.495 420.232 319.925 415.129 323.932 411.005C327.938 406.882 332.339 403.3 337.136 400.258C340.703 397.977 343.774 396.427 346.347 395.608C347.166 395.316 348.161 395.17 349.33 395.17C351.904 395.17 354.156 395.974 356.086 397.582C358.016 399.191 358.981 401.252 358.981 403.767C358.981 404.352 358.952 404.82 358.893 405.171C358.074 410.026 357.051 413.944 355.823 416.927C352.957 424.004 348.307 431.666 341.873 439.913C338.715 444.007 335.176 448.014 331.257 451.933C329.912 453.278 327.339 455.471 323.537 458.512L321.256 460.267L318.449 462.46C316.986 463.572 315.729 464.595 314.676 465.531C312.629 467.403 310.465 469.099 308.184 470.62C305.903 472.14 302.978 473.953 299.411 476.059L297.568 477.112C297.159 477.404 296.106 477.96 294.41 478.779L291.251 480.533C289.497 481.645 288.356 483.282 287.83 485.446C286.075 492.465 284.964 498.869 284.496 504.66C284.438 505.069 284.408 505.654 284.408 506.414C284.408 510.275 285.637 513.93 288.093 517.381C288.912 518.551 290.184 519.457 291.909 520.101C293.635 520.744 295.404 521.066 297.217 521.066C298.972 521.066 300.434 520.773 301.604 520.188L303.797 519.399C305.493 518.755 306.634 518.258 307.219 517.907C307.628 517.673 308.739 517.059 310.553 516.065C312.366 515.071 313.945 513.989 315.29 512.819C318.624 510.07 321.241 507.847 323.142 506.151C325.043 504.455 326.871 502.613 328.625 500.624C331.14 497.758 334.328 493.547 338.188 487.991L341.698 483.165C342.575 481.937 343.306 481.045 343.891 480.489C344.476 479.934 345.295 479.568 346.347 479.393C346.464 479.627 346.523 479.978 346.523 480.446C346.523 481.089 346.304 481.762 345.865 482.463C345.426 483.165 345.119 483.662 344.944 483.955C340.616 492.026 334.621 500.449 326.959 509.222C325.613 510.859 324.18 512.307 322.66 513.565C321.139 514.822 318.916 516.533 315.992 518.697L314.15 520.013C309.938 523.113 305.523 525.072 300.902 525.891ZM291.515 473.866C292.041 473.632 292.641 473.383 293.313 473.12C293.986 472.857 294.498 472.608 294.848 472.374C295.667 471.906 296.252 471.526 296.603 471.234C299.995 469.128 302.51 467.52 304.148 466.408C304.792 465.94 305.757 465.297 307.043 464.478C310.26 462.314 312.717 460.53 314.413 459.127C317.63 456.553 320.335 454.331 322.528 452.459C324.721 450.587 326.783 448.628 328.713 446.581C334.036 441.141 338.539 435.614 342.224 429.999C345.031 425.73 347.342 421.884 349.155 418.463C350.968 415.041 352.372 411.517 353.366 407.891C353.483 407.54 353.541 406.984 353.541 406.224C353.541 404.645 353.161 403.153 352.401 401.75C351.992 401.048 351.319 400.697 350.383 400.697C350.032 400.697 349.564 400.741 348.979 400.828C348.395 400.916 347.897 400.989 347.488 401.048C346.845 401.106 346.274 401.282 345.777 401.574C345.28 401.867 344.739 402.276 344.154 402.802C344.037 402.861 343.745 403.066 343.277 403.417C342.809 403.767 342.341 404.031 341.873 404.206C339.767 404.849 337.881 405.829 336.214 407.145C334.547 408.461 332.544 410.289 330.205 412.628C319.969 422.981 312.161 433.041 306.78 442.808L305.376 445.353C302.043 451.26 299.323 456.319 297.217 460.53C295.112 464.741 293.211 469.187 291.515 473.866Z" fill="#000000" fill-rule="nonzero" opacity="1" stroke="none"/>
<path d="M353.629 507.467C352.401 507.935 351.319 508.169 350.383 508.169C348.745 508.169 347.225 507.73 345.821 506.853C344.417 505.976 343.277 504.879 342.399 503.563C341.522 502.247 341.054 500.946 340.996 499.659C340.937 499.074 340.908 498.168 340.908 496.939C340.908 491.968 342.049 486.733 344.33 481.235L346.698 475.357C346.932 474.948 347.342 474.334 347.927 473.515C348.161 473.164 348.424 472.813 348.716 472.462C349.009 472.111 349.301 471.672 349.594 471.146C349.711 470.97 349.827 470.766 349.944 470.532C350.061 470.298 350.178 470.122 350.295 470.005C351.056 468.953 351.992 468.426 353.103 468.426C353.512 468.426 353.805 468.485 353.98 468.602C354.74 469.07 355.121 469.771 355.121 470.707C355.121 471.351 354.974 471.936 354.682 472.462C353.629 474.977 351.875 478.749 349.418 483.779C347.137 488.4 346.113 493.05 346.347 497.729C346.406 499.367 346.83 500.624 347.62 501.501C348.409 502.379 349.389 502.817 350.559 502.817C351.553 502.817 352.635 502.496 353.805 501.852C359.069 498.869 363.426 495.536 366.877 491.851L371.614 486.85C377.931 480.182 381.031 476.907 380.914 477.024C381.44 476.439 382.171 475.503 383.107 474.217L384.686 472.111C385.622 470.766 386.529 470.093 387.406 470.093C387.64 470.093 387.991 470.21 388.459 470.444C388.868 470.678 389.219 471.102 389.512 471.716C389.804 472.33 389.95 472.988 389.95 473.69C389.95 474.158 389.863 474.568 389.687 474.918C389.453 475.562 389.132 476.234 388.722 476.936C388.313 477.638 387.962 478.34 387.669 479.042C387.318 479.861 387.085 480.475 386.968 480.884C386.09 482.99 384.891 486.09 383.371 490.184C382.961 491.529 382.756 492.436 382.756 492.904C382.756 493.839 382.976 494.57 383.414 495.097C383.853 495.623 384.482 495.886 385.301 495.886C385.476 495.886 385.856 495.828 386.441 495.711C388.956 495.068 391.34 494.044 393.591 492.64C395.843 491.237 398.168 489.511 400.566 487.464C403.023 485.3 404.836 483.589 406.005 482.332C407.175 481.074 408.433 479.334 409.778 477.112C409.895 476.936 410.114 476.746 410.436 476.541C410.758 476.337 411.035 476.147 411.269 475.971C411.796 476.498 412.059 477.083 412.059 477.726C412.059 478.135 411.986 478.545 411.84 478.954C411.693 479.364 411.591 479.656 411.533 479.831C411.299 480.416 410.948 481.06 410.48 481.762C410.012 482.463 409.69 482.961 409.515 483.253C407.526 485.943 405.888 487.976 404.602 489.35C403.315 490.725 401.531 492.202 399.25 493.781C396.267 495.886 393.781 497.51 391.793 498.65C389.804 499.791 387.611 500.566 385.213 500.975C384.862 501.033 384.365 501.063 383.721 501.063C382.025 501.063 380.636 500.595 379.554 499.659C378.472 498.723 377.843 497.407 377.668 495.711C377.551 494.775 377.492 494.044 377.492 493.518L377.58 490.184C376.527 490.652 375.592 491.31 374.773 492.158C373.954 493.006 373.457 493.518 373.281 493.693C367.257 499.776 360.706 504.367 353.629 507.467Z" fill="#000000" fill-rule="nonzero" opacity="1" stroke="none"/>
<path d="M416.095 468.953C413.463 468.953 412.147 467.695 412.147 465.18C412.147 463.893 412.439 462.899 413.024 462.197C413.609 461.495 414.457 461.144 415.568 461.144C418.434 461.144 419.867 462.285 419.867 464.566C419.867 465.56 419.443 466.54 418.595 467.505C417.747 468.47 416.914 468.953 416.095 468.953ZM350.471 603.359C349.009 604.295 347.459 604.762 345.821 604.762C343.423 604.762 341.274 603.914 339.373 602.218C337.472 600.522 336.434 598.446 336.258 595.989C336.2 595.287 336.17 594.264 336.17 592.919C336.17 585.374 338.218 578.384 342.312 571.95C342.546 571.6 343.423 570.137 344.944 567.564C345.353 566.92 345.806 566.175 346.304 565.327C346.801 564.479 347.4 563.528 348.102 562.475C351.319 557.738 353.995 553.995 356.13 551.246C358.264 548.497 360.765 545.982 363.631 543.701C365.327 542.355 367.754 540.104 370.913 536.945C373.077 534.781 374.743 533.173 375.913 532.12C380.183 528.26 384.57 524.575 389.073 521.066C391.354 519.311 393.197 517.439 394.6 515.451C396.004 513.462 396.998 511.123 397.583 508.432C398.46 504.104 400.361 498.694 403.286 492.202L406.005 485.885C406.766 484.247 407.409 482.741 407.936 481.367C408.462 479.992 408.813 478.749 408.988 477.638C409.222 475.883 409.983 475.006 411.269 475.006C411.445 475.006 411.898 475.006 412.629 475.006C413.36 475.006 413.989 475.123 414.516 475.357C415.042 475.591 415.422 475.971 415.656 476.498C415.832 476.907 415.919 477.346 415.919 477.814C415.919 478.223 415.802 478.954 415.568 480.007C415.451 480.299 415.174 480.665 414.735 481.104C414.296 481.542 414.018 481.879 413.901 482.112C413.2 483.282 411.591 486.762 409.076 492.553C407.965 495.477 406.415 499.922 404.426 505.888C404.309 506.356 404.192 506.868 404.075 507.423C403.958 507.979 403.812 508.637 403.637 509.397L408.55 505.8C412.117 503.285 415.042 501.092 417.323 499.22C422.061 495.36 426.374 491.982 430.263 489.087C434.153 486.192 438.086 483.516 442.063 481.06C443.175 480.299 444.198 479.919 445.134 479.919C445.544 479.919 445.865 479.948 446.099 480.007C446.45 480.592 446.362 481.177 445.836 481.762C445.31 482.346 444.549 482.99 443.555 483.692L419.779 502.554C416.797 504.952 413.96 507.35 411.269 509.748L408.374 512.292C407.029 513.521 406.122 514.252 405.655 514.486C403.958 515.305 402.569 516.387 401.487 517.732C400.405 519.077 399.557 520.422 398.943 521.768C398.329 523.113 397.554 525.072 396.618 527.646C395.39 531.096 393.314 536.214 390.389 542.999L389.336 545.368C386.529 551.567 383.955 556.977 381.616 561.598C379.569 565.458 377.229 569.582 374.597 573.968C373.895 575.138 373.34 576.015 372.93 576.6C370.064 581.513 367.462 585.578 365.122 588.795C362.841 591.953 360.516 594.732 358.147 597.13C355.779 599.528 353.22 601.604 350.471 603.359ZM347.927 598.972C349.798 597.627 351.392 596.369 352.708 595.2C354.024 594.03 355.179 592.802 356.173 591.515C359.39 587.187 363.689 580.841 369.07 572.477C369.83 571.307 371.117 569.026 372.93 565.634C373.223 564.99 373.72 564.025 374.422 562.739C374.714 562.212 375.124 561.525 375.65 560.677C376.176 559.829 376.586 559.083 376.878 558.44C377.58 556.861 378.224 555.398 378.808 554.053C379.393 552.708 379.949 551.48 380.475 550.368C380.885 549.374 382.084 546.684 384.072 542.297L388.02 533.524L390.74 527.47L390.301 527.119C389.249 527.821 388.722 528.172 388.722 528.172C388.605 528.289 386.821 529.897 383.371 532.997C378.516 537.267 374.685 540.864 371.878 543.788L370.649 545.104C366.848 549.023 363.66 552.445 361.086 555.369C358.513 558.293 356.173 561.335 354.068 564.493L351.787 567.827C349.389 571.336 347.532 574.217 346.216 576.469C344.9 578.721 343.803 581.133 342.926 583.707C342.282 585.871 341.815 587.596 341.522 588.883C341.23 590.17 341.083 591.515 341.083 592.919C341.083 594.03 341.142 594.849 341.259 595.375C341.493 596.662 342.005 597.715 342.794 598.533C343.584 599.352 344.505 599.762 345.558 599.762C346.318 599.762 347.108 599.498 347.927 598.972Z" fill="#000000" fill-rule="nonzero" opacity="1" stroke="none"/>
<path d="M459.785 507.555C459.201 507.613 458.323 507.643 457.153 507.643C451.188 507.643 446.128 505.917 441.976 502.466C440.221 501.004 438.891 499.264 437.984 497.246C437.077 495.228 436.624 493.079 436.624 490.798C436.624 488.692 437.034 486.558 437.852 484.394C439.373 480.416 441.947 476.059 445.573 471.321C446.918 469.625 448.366 468.119 449.916 466.803C451.465 465.487 453.469 463.923 455.925 462.11L457.855 460.618C458.791 459.916 459.946 459.39 461.321 459.039C462.695 458.688 464.084 458.512 465.488 458.512C467.769 458.512 469.655 459.317 471.147 460.925C472.638 462.534 473.384 464.478 473.384 466.759C473.384 469.859 472.419 472.462 470.489 474.568C465.576 480.065 459.61 484.978 452.591 489.307C451.129 490.184 448.994 491.061 446.187 491.939L442.59 493.167C443.701 495.272 444.827 496.954 445.968 498.211C447.108 499.469 448.526 500.361 450.223 500.887C450.632 501.004 451.451 501.253 452.679 501.633C453.907 502.013 455.033 502.306 456.057 502.51C457.08 502.715 458.031 502.817 458.908 502.817C461.189 502.817 463.324 502.115 465.313 500.712C465.547 500.77 465.927 500.799 466.453 500.799C467.447 500.799 468.442 500.639 469.436 500.317C470.43 499.995 471.571 499.513 472.858 498.869C474.788 497.934 476.396 497.319 477.683 497.027C478.677 496.852 479.701 496.442 480.753 495.799C481.806 495.155 482.479 494.746 482.771 494.57L485.052 493.167C488.679 491.003 492.597 488.575 496.809 485.885C497.393 485.534 497.993 485.037 498.607 484.394C499.221 483.75 499.645 483.312 499.879 483.078C501.166 481.908 503.008 480.182 505.406 477.901C505.816 478.72 506.02 479.451 506.02 480.095C506.02 481.206 505.406 482.317 504.178 483.428C500.142 487.347 497.013 490.184 494.791 491.939C492.217 493.986 488.182 496.881 482.684 500.624C478.589 503.256 473.706 505.098 468.032 506.151L465.137 506.678C463.09 507.204 461.306 507.496 459.785 507.555ZM443.467 487.026C443.935 486.967 444.359 486.923 444.739 486.894C445.12 486.865 445.368 486.821 445.485 486.762L447.591 485.446C448.176 485.095 450.003 483.984 453.074 482.112C456.145 480.241 458.967 478.369 461.54 476.498C462.827 475.62 464.231 474.041 465.751 471.76L466.892 470.269C467.594 469.274 467.945 468.368 467.945 467.549C467.945 466.789 467.681 466.057 467.155 465.356C466.804 464.946 466.351 464.61 465.795 464.347C465.239 464.083 464.64 463.952 463.997 463.952C463.061 463.952 462.271 464.157 461.628 464.566C460.283 465.443 458.85 466.496 457.329 467.724L454.872 469.567C452.825 470.97 451.071 472.652 449.608 474.611C448.146 476.571 446.684 478.925 445.222 481.674C444.929 482.2 444.549 483.282 444.081 484.92L443.467 487.026Z" fill="#000000" fill-rule="nonzero" opacity="1" stroke="none"/>
<path d="M495.756 500.799C494.761 500.156 494.264 499.396 494.264 498.518C494.264 498.051 494.352 497.612 494.527 497.202C494.878 496.325 495.726 493.869 497.072 489.833C499.002 483.926 500.201 480.416 500.669 479.305C501.897 476.381 503.213 473.485 504.617 470.62C505.143 469.508 506.371 467.169 508.301 463.601C508.945 462.431 509.822 461.846 510.933 461.846C511.986 461.846 512.659 462.095 512.951 462.592C513.244 463.089 513.419 463.806 513.478 464.741C513.536 465.209 513.624 465.75 513.741 466.365C513.858 466.979 513.946 467.432 514.004 467.724C514.18 468.426 514.267 469.011 514.267 469.479C514.267 470.064 514.077 470.517 513.697 470.839C513.317 471.161 512.6 471.526 511.548 471.936C510.553 472.345 509.881 472.915 509.53 473.646C509.179 474.377 508.916 475.196 508.74 476.103C508.565 477.009 508.418 477.697 508.301 478.165L509.793 477.112C512.191 475.357 513.946 474.129 515.057 473.427C517.747 471.672 520.145 470.269 522.251 469.216C523.187 468.748 524.298 468.514 525.585 468.514C526.93 468.514 528.202 468.836 529.401 469.479C530.6 470.122 531.609 471.029 532.428 472.199C533.247 473.368 533.875 474.48 534.314 475.533C534.753 476.585 534.972 477.726 534.972 478.954C534.972 479.422 535.104 479.992 535.367 480.665C535.63 481.338 535.82 481.879 535.937 482.288L544.535 475.445C548.161 472.696 551.32 470.605 554.01 469.172C556.701 467.739 559.683 466.935 562.959 466.759C564.07 466.701 565.006 466.891 565.766 467.33C566.527 467.768 567.316 468.455 568.135 469.391C569.363 470.737 570.182 472.213 570.591 473.822C571.001 475.43 571.206 477.258 571.206 479.305L571.118 483.692C571.118 484.861 571.235 485.987 571.469 487.069C571.703 488.151 572.083 489.482 572.609 491.061C573.077 492.64 574.159 493.284 575.855 492.991C577.903 492.699 579.16 492.494 579.628 492.377L586.734 490.184L592.876 488.254C595.507 487.376 598.286 485.593 601.21 482.902C601.503 482.61 601.985 482.142 602.658 481.498C603.33 480.855 604.003 480.329 604.676 479.919C605.348 479.51 606.035 479.188 606.737 478.954C607.205 479.597 607.439 480.212 607.439 480.797C607.439 481.498 606.971 482.259 606.035 483.078C605.801 483.312 604.895 484.101 603.316 485.446C601.737 486.792 600.128 487.991 598.49 489.043C592.525 493.138 585.886 496.033 578.575 497.729C577.639 497.963 576.616 498.08 575.505 498.08C572.814 498.08 570.606 497.202 568.881 495.448C567.155 493.693 566.146 491.295 565.854 488.254C565.678 486.207 565.591 484.218 565.591 482.288L565.415 478.252C565.181 474.217 563.807 472.199 561.292 472.199C559.947 472.199 558.455 472.696 556.818 473.69L554.01 475.357C552.138 476.41 550.764 477.229 549.887 477.814C549.009 478.457 547.781 479.51 546.202 480.972L544.359 482.551L542.868 483.867C540.879 485.622 539.33 486.909 538.218 487.727C536.99 488.605 535.82 489.043 534.709 489.043C533.598 489.043 532.647 488.649 531.858 487.859C531.068 487.069 530.556 485.973 530.322 484.569C530.088 483.458 529.854 481.791 529.62 479.568C529.62 479.217 529.591 478.983 529.533 478.866C529.006 476.176 527.661 474.831 525.497 474.831C524.854 474.831 524.181 474.948 523.479 475.182C522.309 475.533 521.213 476.015 520.189 476.629C519.166 477.243 517.952 478.048 516.548 479.042L515.057 480.182C512.717 481.82 510.714 483.399 509.047 484.92C507.38 486.441 505.743 488.488 504.134 491.061C502.526 493.635 501.224 496.793 500.23 500.536C500.055 501.238 499.47 501.589 498.475 501.589C497.481 501.589 496.575 501.326 495.756 500.799Z" fill="#000000" fill-rule="nonzero" opacity="1" stroke="none"/>
<path d="M633.934 518.872C632.94 518.872 632.063 518.375 631.302 517.381C630.542 516.387 630.279 515.363 630.513 514.31C630.981 511.971 631.683 509.777 632.618 507.73C634.431 503.812 637.268 497.934 641.128 490.096C644.228 483.721 646.948 478.252 649.287 473.69C651.978 468.66 654.025 464.917 655.429 462.46L658.499 456.846L661.131 451.582L663.149 447.634L665.693 443.072C664.992 442.136 664.509 441.434 664.246 440.966C663.983 440.498 663.851 440.03 663.851 439.562C663.851 439.153 663.997 438.656 664.29 438.071C664.582 437.486 664.962 436.784 665.43 435.965C668.647 430.409 671.718 426.168 674.642 423.244C675.402 422.484 676.368 421.226 677.537 419.472C678.239 418.419 678.795 417.658 679.204 417.191C680.023 416.079 680.988 415.524 682.099 415.524C682.567 415.524 683.094 415.67 683.679 415.962C684.556 416.372 684.995 417.22 684.995 418.506C684.995 419.325 684.848 420.056 684.556 420.7C684.497 420.875 684.395 421.241 684.249 421.796C684.103 422.352 683.883 422.805 683.591 423.156C682.421 424.502 681.398 425.934 680.52 427.455C679.643 428.976 678.619 430.906 677.45 433.246C677.216 433.713 676.938 434.298 676.616 435C676.294 435.702 675.87 436.521 675.344 437.457L672.361 442.721C670.957 445.06 669.934 446.844 669.29 448.072C668.764 449.008 668.033 450.47 667.097 452.459L664.816 456.933C663.412 459.273 662.594 460.618 662.36 460.969L660.868 463.425C660.634 463.835 660.386 464.215 660.122 464.566C659.859 464.917 659.611 465.297 659.377 465.707C658.792 466.818 658.28 467.856 657.841 468.821C657.403 469.786 656.979 470.649 656.569 471.409L654.727 475.357L652.007 480.358L648.322 487.201L646.919 490.184L645.778 492.816L649.638 490.008C651.452 488.663 653.294 487.333 655.166 486.017C657.037 484.701 658.792 483.604 660.429 482.727C662.184 481.732 664.027 480.87 665.957 480.139C667.887 479.407 670.226 478.632 672.975 477.814C673.56 477.638 674.233 477.55 674.993 477.55C676.104 477.55 677.303 477.697 678.59 477.989C679.058 478.106 679.541 478.384 680.038 478.823C680.535 479.261 680.871 479.714 681.047 480.182C681.339 480.826 681.953 482.58 682.889 485.446C683.24 486.733 683.532 487.698 683.766 488.341C685.112 488.049 686.603 487.625 688.241 487.069C689.878 486.514 691.048 486.119 691.75 485.885C695.376 484.657 698.461 483.721 701.006 483.078C703.55 482.434 706.255 482.112 709.121 482.112C710.291 482.112 711.197 482.142 711.841 482.2C711.431 482.551 711.007 482.975 710.569 483.472C710.13 483.969 709.764 484.247 709.472 484.306C705.963 485.125 702.614 486.177 699.427 487.464C696.239 488.751 692.042 490.564 686.837 492.904L682.012 495.097C681.134 495.506 680.111 496.442 678.941 497.904L675.607 502.379C672.917 506.005 671.104 508.374 670.168 509.485C669.583 510.187 668.837 510.845 667.931 511.459C667.024 512.073 666.483 512.439 666.308 512.556L664.728 513.608C664.436 513.842 663.953 514.12 663.281 514.442C662.608 514.764 662.096 515.071 661.745 515.363C660.927 516.006 660.108 516.328 659.289 516.328C658.646 516.328 657.681 516.036 656.394 515.451C654.932 514.749 654.2 513.667 654.2 512.205C654.2 511.737 654.288 511.298 654.464 510.889C654.581 510.596 654.829 509.953 655.209 508.959C655.59 507.964 655.984 507.102 656.394 506.371C656.803 505.639 657.242 505.011 657.71 504.484C659.464 502.613 661.453 500.916 663.676 499.396C665.898 497.875 668.559 496.237 671.659 494.483C673.531 493.488 674.876 492.363 675.695 491.105C676.514 489.848 676.923 488.225 676.923 486.236C676.923 485.826 676.865 485.095 676.748 484.043C675.636 483.575 674.467 483.341 673.238 483.341C671.893 483.341 670.621 483.589 669.422 484.086C668.223 484.584 666.834 485.3 665.255 486.236C659.406 489.628 654.274 493.342 649.858 497.378C645.442 501.414 641.801 506.034 638.935 511.24C637.999 512.994 637.239 514.573 636.654 515.977C636.537 516.211 636.362 516.606 636.128 517.162C635.894 517.717 635.616 518.141 635.294 518.434C634.972 518.726 634.519 518.872 633.934 518.872ZM665.518 505.537L661.395 508.959L661.921 509.485L665.518 505.537Z" fill="#000000" fill-rule="nonzero" opacity="1" stroke="none"/>
<path d="M666.834 607.57C662.974 605.815 660.897 602.979 660.605 599.06C660.488 597.773 660.429 596.837 660.429 596.252C660.429 592.568 661.087 588.985 662.403 585.505C663.719 582.025 665.576 578.384 667.974 574.582C669.729 571.775 671.425 569.202 673.063 566.862C676.982 561.013 682.275 554.609 688.943 547.649C692.803 543.671 698.213 538.583 705.173 532.383L708.156 529.663L715.262 523.171C716.491 522.06 717.485 520.832 718.245 519.487C719.006 518.141 719.854 516.357 720.789 514.135C721.842 511.62 723.48 508.228 725.702 503.958L727.896 499.659C727.428 499.951 726.916 500.273 726.36 500.624C725.805 500.975 725.41 501.267 725.176 501.501C724.182 502.671 723.056 503.68 721.798 504.528C720.541 505.376 719.006 506.268 717.192 507.204C716.9 507.379 716.549 507.57 716.14 507.774C715.73 507.979 715.321 508.198 714.911 508.432C713.508 509.193 711.928 509.573 710.174 509.573C708.77 509.573 707.439 509.324 706.182 508.827C704.924 508.33 703.974 507.643 703.331 506.765C702.687 505.888 702.19 504.63 701.839 502.993C701.488 501.297 701.313 499.688 701.313 498.168C701.313 495.185 701.839 492.289 702.892 489.482C703.945 486.675 705.436 483.575 707.366 480.182C707.542 479.89 707.747 479.378 707.98 478.647C708.214 477.916 708.448 477.375 708.682 477.024C709.911 475.386 711.022 474.187 712.016 473.427C712.367 473.135 712.864 472.988 713.508 472.988C714.092 472.988 714.677 473.149 715.262 473.471C715.847 473.793 716.315 474.217 716.666 474.743C717.017 475.328 717.192 475.942 717.192 476.585C717.192 477.697 716.695 478.515 715.701 479.042C714.648 479.627 713.844 480.358 713.288 481.235C712.733 482.112 712.25 483.195 711.841 484.481C710.788 487.581 709.501 490.798 707.98 494.132C707.513 495.126 707.279 496.237 707.279 497.466C707.279 498.518 707.454 499.644 707.805 500.843C708.156 502.042 708.361 502.759 708.419 502.993C709.004 503.344 709.589 503.519 710.174 503.519C710.759 503.519 711.402 503.358 712.104 503.037C712.806 502.715 713.215 502.525 713.332 502.466C718.128 500.361 722.047 497.173 725.088 492.904C725.556 492.26 726.843 490.593 728.949 487.903C730.469 486.031 731.697 484.452 732.633 483.165C733.569 481.879 734.417 480.504 735.178 479.042C735.528 478.34 736.011 477.682 736.625 477.068C737.239 476.454 737.883 475.869 738.555 475.313C739.228 474.758 739.71 474.363 740.003 474.129C740.471 473.719 740.997 473.515 741.582 473.515C742.401 473.515 743.161 473.866 743.863 474.568C744.389 475.094 744.653 475.679 744.653 476.322C744.653 476.79 744.506 477.375 744.214 478.077C743.337 479.89 742.635 481.44 742.108 482.727C741.874 483.195 741.64 483.706 741.407 484.262C741.173 484.818 740.909 485.417 740.617 486.06C739.623 488.283 738.073 491.558 735.967 495.886C735.499 496.764 734.856 498.08 734.037 499.834L728.51 511.152L729.212 511.766C735.645 506.444 740.266 502.671 743.073 500.449C743.366 500.215 744.009 499.703 745.004 498.913C745.998 498.124 746.978 497.451 747.943 496.895C748.908 496.34 749.858 495.916 750.794 495.623C751.496 495.448 752.373 494.834 753.426 493.781C754.362 493.021 754.917 492.582 755.093 492.465C757.491 490.827 761.146 488.488 766.059 485.446C766.293 485.271 766.615 485.154 767.024 485.095C767.434 485.037 767.697 485.008 767.814 485.008L767.902 485.008C768.019 485.008 768.15 485.052 768.296 485.139C768.443 485.227 768.574 485.3 768.691 485.359C768.75 485.943 768.633 486.411 768.34 486.762C768.048 487.113 767.712 487.42 767.331 487.684C766.951 487.947 766.703 488.137 766.586 488.254L757.023 495.886C747.548 503.49 740.412 509.163 735.616 512.907C732.75 515.188 730.089 517.205 727.633 518.96C725.644 520.422 724.211 522.323 723.334 524.663L720.526 531.769C719.181 535.22 717.777 538.758 716.315 542.385C714.853 546.011 713.42 549.286 712.016 552.211C705.816 565.605 699.383 577.273 692.715 587.216C689.908 591.427 687.173 595.053 684.512 598.095C681.851 601.136 678.883 603.768 675.607 605.991C673.443 607.453 671.455 608.184 669.641 608.184C668.647 608.184 667.711 607.979 666.834 607.57ZM672.8 601.78C673.385 601.253 674.262 600.522 675.432 599.586C677.011 598.358 678.298 597.261 679.292 596.296C680.286 595.331 681.134 594.205 681.836 592.919C682.187 592.334 683.123 590.988 684.644 588.883C685.813 587.362 686.632 586.222 687.1 585.461C687.568 584.701 688.094 583.853 688.679 582.917C689.264 581.981 689.937 580.928 690.697 579.759C695.142 572.623 698.505 566.979 700.786 562.826C701.664 561.189 702.541 559.361 703.418 557.343C704.296 555.325 705.115 553.322 705.875 551.333L708.156 545.894L715.087 530.716C714.911 530.658 714.78 530.599 714.692 530.541C714.604 530.482 714.531 530.424 714.473 530.365L711.402 533.085L708.244 536.156C705.202 539.197 702.629 541.566 700.523 543.262C697.891 545.368 695.42 547.649 693.11 550.105C690.8 552.562 688.124 555.632 685.082 559.317C681.631 563.353 677.333 569.319 672.186 577.214L670.431 579.934C669.086 581.981 668.033 584.204 667.273 586.602C666.512 589 665.869 591.72 665.343 594.761C665.284 595.053 665.255 595.463 665.255 595.989C665.255 597.042 665.401 598.153 665.693 599.323C666.044 600.493 666.585 601.414 667.316 602.087C668.048 602.759 668.881 603.095 669.817 603.095C670.811 603.095 671.805 602.657 672.8 601.78Z" fill="#000000" fill-rule="nonzero" opacity="1" stroke="none"/>
<path d="M779.658 538.788C777.143 539.782 774.745 540.279 772.464 540.279C769.013 540.279 766.089 538.992 763.691 536.419C761.936 534.547 761 532.237 760.883 529.488C760.825 528.026 760.81 526.754 760.839 525.672C760.868 524.59 760.883 523.698 760.883 522.996C760.942 522.06 760.971 520.627 760.971 518.697C760.971 514.252 761.79 509.368 763.427 504.046L765.796 496.15C767.434 490.652 768.721 486.558 769.656 483.867C770.768 480.533 772.639 476.205 775.271 470.883C777.318 466.613 779.541 462.168 781.939 457.547C784.22 453.219 786.092 449.505 787.554 446.405L783.518 446.318C781.997 446.318 779.716 446.376 776.675 446.493L769.92 446.581L758.865 446.493L756.058 446.493C750.794 446.552 744.799 446.786 738.073 447.195C736.727 447.253 735.602 447.005 734.695 446.449C733.788 445.894 733.335 445.119 733.335 444.124C733.335 443.247 733.642 442.414 734.256 441.624C734.87 440.834 735.645 440.323 736.581 440.089C739.272 439.445 742.401 438.89 745.969 438.422C751.174 437.72 756.38 437.033 761.585 436.36C766.79 435.687 771.996 435.029 777.201 434.386C779.365 434.094 781.266 433.874 782.904 433.728C784.542 433.582 785.887 433.45 786.94 433.333L792.028 432.807C794.894 432.514 796.853 431.462 797.906 429.649C798.023 429.473 798.52 428.713 799.398 427.367L801.415 424.121C804.925 418.097 808.668 413.096 812.645 409.119C812.938 408.827 813.274 408.359 813.654 407.715C814.034 407.072 814.341 406.633 814.575 406.399C815.219 405.698 815.906 405.01 816.637 404.338C817.368 403.665 818.114 403.124 818.874 402.715C819.518 402.364 820.073 402.188 820.541 402.188C821.243 402.188 821.799 402.481 822.208 403.066C822.617 403.65 822.822 404.411 822.822 405.347C822.822 406.75 822.413 408.183 821.594 409.646C821.009 410.581 820.015 411.868 818.611 413.506C818.319 413.974 817.821 414.617 817.12 415.436C816.71 416.021 816.33 416.547 815.979 417.015C815.628 417.483 815.336 417.892 815.102 418.243C814.985 418.419 814.765 418.74 814.444 419.208C814.122 419.676 813.786 419.998 813.435 420.173C809.633 422.454 806.767 425.993 804.837 430.789L810.803 430.789C813.376 430.789 815.277 430.76 816.505 430.701C818.787 430.584 822.003 430.292 826.156 429.824L828.613 429.561L841.597 428.42C845.106 428.128 848.265 427.982 851.072 427.982L853.178 427.982C857.74 427.865 860.752 427.806 862.214 427.806C866.893 427.806 870.359 427.952 872.61 428.245C874.862 428.537 876.354 428.961 877.085 429.517C877.816 430.073 878.269 430.906 878.445 432.017C876.222 432.427 872.42 432.778 867.039 433.07C861.658 433.363 856.775 433.509 852.388 433.509L816.33 435.878L812.996 436.141C808.668 436.492 805.305 436.726 802.907 436.843C801.971 436.843 801.196 437.033 800.582 437.413C799.968 437.793 799.427 438.393 798.959 439.211C798.316 440.44 796.912 442.779 794.748 446.23L790.537 453.336C788.782 456.495 786.823 460.384 784.659 465.005C780.915 473.076 778.196 479.13 776.499 483.165C772.932 491.588 770.007 500.536 767.726 510.011C766.732 514.223 766.147 518.668 765.972 523.347C765.972 525.335 766.264 527.587 766.849 530.102C767.258 531.857 767.916 533.114 768.823 533.875C769.729 534.635 771.031 535.015 772.727 535.015C774.306 535.015 776.178 534.635 778.342 533.875C782.085 532.471 785.638 530.614 789.001 528.304C792.364 525.993 795.771 523.23 799.222 520.013C806.475 513.345 812.587 507.613 817.558 502.817C818.436 501.999 820.921 499.454 825.016 495.185L829.314 490.71C829.49 490.535 829.738 490.33 830.06 490.096C830.382 489.862 830.601 489.687 830.718 489.57C831.537 490.038 831.946 490.623 831.946 491.324C831.946 491.909 831.625 492.523 830.981 493.167C828.291 497.085 824.548 501.589 819.752 506.678C814.956 511.766 811.095 515.714 808.171 518.521L806.329 520.276C803.463 523.084 801.006 525.365 798.959 527.119C796.912 528.874 794.689 530.395 792.291 531.681C792.116 531.74 791.882 531.842 791.589 531.988C791.297 532.135 791.092 532.295 790.975 532.471C789.806 533.875 788.475 534.971 786.984 535.761C785.492 536.55 784.03 537.208 782.597 537.735C781.164 538.261 780.184 538.612 779.658 538.788ZM790.361 441.054C790.478 440.82 790.727 440.44 791.107 439.913C791.487 439.387 791.765 438.89 791.94 438.422C789.016 438.422 783.65 438.743 775.841 439.387C768.033 440.03 765.065 440.44 766.937 440.615C768.282 440.791 771.733 440.907 777.289 440.966C782.845 441.024 787.203 441.054 790.361 441.054ZM829.578 388.941C827.647 390.695 825.893 391.573 824.314 391.573C821.974 391.573 820.132 389.672 818.787 385.87C818.319 384.349 818.085 382.975 818.085 381.747C818.085 380.284 818.377 378.208 818.962 375.518C819.02 375.108 819.167 374.377 819.401 373.324C819.635 372.272 819.781 371.306 819.839 370.429C819.839 370.195 820.161 369.903 820.804 369.552C821.448 369.201 821.886 369.084 822.12 369.201C822.764 369.435 823.392 369.8 824.007 370.298C824.621 370.795 824.986 371.277 825.103 371.745C825.22 372.33 825.279 372.798 825.279 373.149C825.279 373.675 825.22 374.319 825.103 375.079C824.986 375.839 824.899 376.512 824.84 377.097C824.606 380.021 824.372 382.302 824.138 383.94C824.372 383.998 824.957 384.232 825.893 384.642L832.473 377.886C835.807 374.436 838.38 371.95 840.193 370.429C840.486 370.137 840.924 369.99 841.509 369.99C842.211 369.99 842.796 370.137 843.264 370.429C843.498 370.488 843.659 370.809 843.746 371.394C843.834 371.979 843.819 372.535 843.703 373.061C843.527 374.114 843.059 374.962 842.299 375.605L839.316 378.851C835.105 383.53 831.859 386.894 829.578 388.941Z" fill="#000000" fill-rule="nonzero" opacity="1" stroke="none"/>
<path d="M875.637 578.881C874.526 579.057 873.444 579.145 872.391 579.145C869.116 579.145 865.987 578.443 863.004 577.039C858.5 575.05 856.248 571.512 856.248 566.423C856.248 564.376 856.614 562.388 857.345 560.458C858.076 558.527 859.085 556.539 860.372 554.492C863.062 550.105 865.636 546.625 868.092 544.052C870.081 541.771 873.005 538.992 876.865 535.717L879.059 533.787C879.878 533.085 880.492 532.588 880.901 532.295C882.071 531.36 882.919 530.629 883.445 530.102C884.908 528.698 886.414 527.426 887.964 526.286C889.513 525.145 891.575 523.698 894.149 521.943L897.044 519.925C897.687 519.516 898.886 518.58 900.641 517.118C901.694 516.182 902.512 515.509 903.097 515.1C903.565 514.749 904.194 514.34 904.984 513.872C905.773 513.404 906.402 513.024 906.87 512.731L910.467 510.626C912.982 509.046 915.38 507.643 917.661 506.414C918.948 505.713 920.615 504.923 922.662 504.046L924.767 503.081L926.697 502.115C929.271 500.829 931.201 499.893 932.488 499.308C933.716 498.782 934.33 497.846 934.33 496.501C934.33 496.033 934.301 495.682 934.242 495.448C933.774 492.991 932.78 491.09 931.259 489.745C929.739 488.4 927.779 487.727 925.381 487.727C921.463 487.727 917.983 488.225 914.941 489.219C912.602 489.921 909.443 491.178 905.466 492.991C903.361 493.927 901.781 494.6 900.729 495.009C899.968 495.36 899.047 495.682 897.965 495.974C896.883 496.267 896.079 496.501 895.552 496.676C895.318 496.735 895.026 496.764 894.675 496.764C893.505 496.764 892.569 496.15 891.868 494.921C891.517 494.278 891.341 493.722 891.341 493.255C891.341 492.494 891.751 491.792 892.569 491.149C894.266 490.038 896.05 488.722 897.921 487.201L903.01 483.078C907.455 479.451 910.847 476.79 913.187 475.094C916.93 472.52 919.825 469.83 921.872 467.023C921.814 467.081 922.194 466.379 923.013 464.917C922.545 464.741 921.916 464.478 921.126 464.127C920.337 463.776 919.62 463.572 918.977 463.513C916.462 463.045 914.122 462.811 911.958 462.811C909.97 462.811 908.069 463.016 906.256 463.425C906.08 463.484 905.846 463.513 905.554 463.513C904.794 463.513 904.106 463.323 903.492 462.943C902.878 462.563 902.512 462.08 902.396 461.495C902.337 461.32 902.308 461.086 902.308 460.794C902.308 460.092 902.542 459.478 903.01 458.951C903.478 458.425 904.062 458.103 904.764 457.986C906.343 457.811 907.952 457.723 909.59 457.723C912.163 457.723 914.327 457.767 916.082 457.854C917.836 457.942 919.562 458.132 921.258 458.425C923.013 458.776 924.563 459.609 925.908 460.925C927.253 462.241 927.926 463.747 927.926 465.443C927.926 467.198 927.195 469.011 925.732 470.883C924.153 472.988 922.355 474.889 920.337 476.585C918.319 478.282 915.731 480.27 912.572 482.551L910.555 483.955C910.028 484.247 909.707 484.686 909.59 485.271C909.999 485.154 911.081 484.832 912.836 484.306C915.526 483.487 917.544 482.99 918.889 482.814C919.416 482.756 920.293 482.668 921.521 482.551C922.749 482.434 923.861 482.376 924.855 482.376C927.312 482.376 929.388 482.785 931.084 483.604C933.307 484.598 935.076 485.958 936.392 487.684C937.708 489.409 938.483 491.5 938.717 493.956C938.717 494.366 938.834 494.804 939.068 495.272C939.126 495.565 939.331 495.886 939.682 496.237C940.033 496.179 940.398 496.12 940.778 496.062C941.159 496.003 941.524 495.945 941.875 495.886L945.56 494.307C953.631 490.798 959.743 488.254 963.896 486.675C970.447 484.16 978.284 481.323 987.408 478.165C987.935 477.989 989.192 477.784 991.181 477.55L993.637 477.287C992.818 478.515 991.926 479.466 990.961 480.139C989.996 480.811 988.812 481.469 987.408 482.112C985.303 483.048 982.919 484.043 980.258 485.095C977.597 486.148 975.798 486.85 974.862 487.201C971.236 488.605 968.517 489.687 966.703 490.447L946.876 498.782L941.787 500.887C941.086 501.121 940.588 501.472 940.296 501.94C940.003 502.408 939.828 503.081 939.77 503.958C939.594 515.831 936.787 526.856 931.347 537.033C930.294 538.788 928.481 542.209 925.908 547.298C924.972 548.994 923.992 550.515 922.969 551.86C921.945 553.205 920.351 555.164 918.187 557.738C918.246 557.679 917.573 558.44 916.169 560.019C912.251 564.698 906.577 568.821 899.149 572.389L896.956 573.442C894.792 574.553 892.92 575.372 891.341 575.898C890.113 576.249 888.738 576.586 887.218 576.907C885.697 577.229 884.644 577.448 884.059 577.565L880.726 578.267C879.731 578.443 878.035 578.647 875.637 578.881ZM868.004 574.232C869.35 574.465 870.841 574.582 872.479 574.582C874.877 574.582 878.357 574.173 882.919 573.354C891.692 571.658 899.91 567.652 907.572 561.335C909.619 559.756 911.578 557.855 913.45 555.632C917.544 551.363 920.966 546.567 923.714 541.244C926.171 537.033 928.16 532.939 929.68 528.962C930.792 526.564 931.815 523.347 932.751 519.311C933.57 516.211 934.272 512.497 934.856 508.169C934.915 507.701 934.856 507.058 934.681 506.239C934.506 505.42 934.389 504.747 934.33 504.221L929.856 506.59C929.212 506.999 928.613 507.336 928.057 507.599C927.502 507.862 926.99 508.14 926.522 508.432L921.083 511.415C920.381 511.825 918.246 512.98 914.678 514.881C911.11 516.781 907.806 518.697 904.764 520.627C896.634 525.774 890.201 530.453 885.463 534.664L883.182 536.594C878.912 540.455 875.579 543.569 873.181 545.938C870.783 548.307 868.56 550.953 866.513 553.878C864.407 556.685 862.828 559.288 861.775 561.686C861.015 563.382 860.635 564.961 860.635 566.423C860.635 568.412 861.249 570.123 862.477 571.556C863.706 572.989 865.548 573.881 868.004 574.232ZM936.787 445.177C934.856 446.932 933.102 447.809 931.523 447.809C929.183 447.809 927.341 445.908 925.996 442.107C925.528 440.586 925.294 439.211 925.294 437.983C925.294 436.521 925.586 434.445 926.171 431.754C926.229 431.345 926.376 430.614 926.61 429.561C926.844 428.508 926.99 427.543 927.048 426.666C927.048 426.432 927.37 426.139 928.013 425.788C928.657 425.437 929.095 425.32 929.329 425.437C929.973 425.671 930.601 426.037 931.216 426.534C931.83 427.031 932.195 427.514 932.312 427.982C932.429 428.566 932.488 429.034 932.488 429.385C932.488 429.912 932.429 430.555 932.312 431.315C932.195 432.076 932.108 432.748 932.049 433.333C931.815 436.258 931.581 438.539 931.347 440.176C931.581 440.235 932.166 440.469 933.102 440.878L939.682 434.123C943.016 430.672 945.589 428.186 947.402 426.666C947.695 426.373 948.133 426.227 948.718 426.227C949.42 426.227 950.005 426.373 950.473 426.666C950.707 426.724 950.868 427.046 950.955 427.631C951.043 428.216 951.029 428.771 950.912 429.298C950.736 430.35 950.268 431.198 949.508 431.842L946.525 435.088C942.314 439.767 939.068 443.13 936.787 445.177Z" fill="#000000" fill-rule="nonzero" opacity="1" stroke="none"/>
<path d="M1001.01 507.555C1000.42 507.613 999.545 507.643 998.375 507.643C992.409 507.643 987.35 505.917 983.197 502.466C981.442 501.004 980.112 499.264 979.205 497.246C978.299 495.228 977.845 493.079 977.845 490.798C977.845 488.692 978.255 486.558 979.074 484.394C980.594 480.416 983.168 476.059 986.794 471.321C988.139 469.625 989.587 468.119 991.137 466.803C992.687 465.487 994.69 463.923 997.147 462.11L999.077 460.618C1000.01 459.916 1001.17 459.39 1002.54 459.039C1003.92 458.688 1005.31 458.512 1006.71 458.512C1008.99 458.512 1010.88 459.317 1012.37 460.925C1013.86 462.534 1014.61 464.478 1014.61 466.759C1014.61 469.859 1013.64 472.462 1011.71 474.568C1006.8 480.065 1000.83 484.978 993.813 489.307C992.35 490.184 990.216 491.061 987.408 491.939L983.811 493.167C984.922 495.272 986.048 496.954 987.189 498.211C988.329 499.469 989.748 500.361 991.444 500.887C991.853 501.004 992.672 501.253 993.9 501.633C995.129 502.013 996.255 502.306 997.278 502.51C998.302 502.715 999.252 502.817 1000.13 502.817C1002.41 502.817 1004.55 502.115 1006.53 500.712C1006.77 500.77 1007.15 500.799 1007.67 500.799C1008.67 500.799 1009.66 500.639 1010.66 500.317C1011.65 499.995 1012.79 499.513 1014.08 498.869C1016.01 497.934 1017.62 497.319 1018.9 497.027C1019.9 496.852 1020.92 496.442 1021.97 495.799C1023.03 495.155 1023.7 494.746 1023.99 494.57L1026.27 493.167C1029.9 491.003 1033.82 488.575 1038.03 485.885C1038.61 485.534 1039.21 485.037 1039.83 484.394C1040.44 483.75 1040.87 483.312 1041.1 483.078C1042.39 481.908 1044.23 480.182 1046.63 477.901C1047.04 478.72 1047.24 479.451 1047.24 480.095C1047.24 481.206 1046.63 482.317 1045.4 483.428C1041.36 487.347 1038.23 490.184 1036.01 491.939C1033.44 493.986 1029.4 496.881 1023.9 500.624C1019.81 503.256 1014.93 505.098 1009.25 506.151L1006.36 506.678C1004.31 507.204 1002.53 507.496 1001.01 507.555ZM984.689 487.026C985.156 486.967 985.58 486.923 985.961 486.894C986.341 486.865 986.589 486.821 986.706 486.762L988.812 485.446C989.397 485.095 991.225 483.984 994.295 482.112C997.366 480.241 1000.19 478.369 1002.76 476.498C1004.05 475.62 1005.45 474.041 1006.97 471.76L1008.11 470.269C1008.81 469.274 1009.17 468.368 1009.17 467.549C1009.17 466.789 1008.9 466.057 1008.38 465.356C1008.03 464.946 1007.57 464.61 1007.02 464.347C1006.46 464.083 1005.86 463.952 1005.22 463.952C1004.28 463.952 1003.49 464.157 1002.85 464.566C1001.5 465.443 1000.07 466.496 998.55 467.724L996.094 469.567C994.047 470.97 992.292 472.652 990.83 474.611C989.368 476.571 987.905 478.925 986.443 481.674C986.151 482.2 985.771 483.282 985.303 484.92L984.689 487.026Z" fill="#000000" fill-rule="nonzero" opacity="1" stroke="none"/>
<path d="M1092.86 507.204C1092.45 507.262 1091.87 507.292 1091.11 507.292C1088.71 507.292 1086.75 506.59 1085.23 505.186C1083.71 503.782 1082.83 501.794 1082.6 499.22C1082.48 497.934 1082.42 496.998 1082.42 496.413C1082.42 493.781 1082.77 491.149 1083.48 488.517C1084.18 485.885 1085.14 483.107 1086.37 480.182C1086.96 478.896 1087.25 477.784 1087.25 476.849C1087.25 476.205 1087.13 475.562 1086.9 474.918C1086.02 474.801 1085.2 474.86 1084.44 475.094C1083.68 475.328 1082.92 475.62 1082.16 475.971C1081.4 476.322 1080.81 476.585 1080.4 476.761C1077.13 478.106 1074.07 479.802 1071.24 481.849C1068.4 483.896 1065.05 486.587 1061.19 489.921C1057.86 492.845 1054.61 495.828 1051.45 498.869C1051.39 498.928 1049.79 500.449 1046.63 503.431C1046.16 503.899 1045.87 504.163 1045.75 504.221C1045.52 504.338 1045.06 504.572 1044.39 504.923C1043.72 505.274 1043.1 505.537 1042.55 505.713C1041.99 505.888 1041.45 505.976 1040.92 505.976C1040.05 505.976 1039.26 505.742 1038.56 505.274C1037.33 504.455 1036.71 503.168 1036.71 501.414C1036.71 500.829 1036.83 499.893 1037.06 498.606C1037.24 497.963 1037.53 497.217 1037.94 496.369C1038.35 495.521 1038.64 494.892 1038.82 494.483L1043.29 483.867C1043.47 483.399 1044.05 482.112 1045.05 480.007C1044.81 480.182 1044.41 480.475 1043.82 480.884C1043.24 481.294 1042.71 481.528 1042.24 481.586L1041.71 481.674C1040.84 481.674 1040.22 481.411 1039.87 480.884C1039.58 480.592 1039.38 480.182 1039.26 479.656C1039.14 479.13 1039.17 478.749 1039.35 478.515L1040.57 476.585C1041.63 474.831 1042.64 473.412 1043.6 472.33C1044.57 471.248 1045.75 470.415 1047.15 469.83C1047.8 469.538 1048.38 469.304 1048.91 469.128C1049.73 469.011 1050.28 468.953 1050.58 468.953C1052.56 468.953 1053.56 469.888 1053.56 471.76C1053.56 472.696 1053.35 473.69 1052.94 474.743C1051.95 477.433 1050.02 481.996 1047.15 488.429C1046.86 489.073 1046.04 490.973 1044.7 494.132L1042.68 498.957L1052.15 490.447C1052.27 490.33 1053.35 489.424 1055.4 487.727L1057.51 485.973C1058.68 485.037 1059.55 484.306 1060.14 483.779C1063.59 481.03 1065.87 479.247 1066.98 478.428C1069.2 476.907 1070.93 475.781 1072.16 475.05C1073.39 474.319 1074.79 473.749 1076.37 473.339C1076.84 473.222 1077.42 472.915 1078.12 472.418C1078.83 471.921 1079.35 471.614 1079.7 471.497L1081.55 470.97C1084.12 470.152 1086.08 469.742 1087.42 469.742C1089.06 469.742 1090.35 470.196 1091.28 471.102C1092.22 472.009 1092.69 473.222 1092.69 474.743C1092.69 475.328 1092.66 475.767 1092.6 476.059C1092.31 477.697 1091.75 479.773 1090.93 482.288C1090.64 483.107 1090.26 484.335 1089.79 485.973L1089.18 488.254C1088.07 491.939 1087.51 494.892 1087.51 497.115C1087.51 500.566 1088.91 502.291 1091.72 502.291C1092.6 502.291 1093.56 502.115 1094.62 501.765C1095.85 501.355 1097.18 500.785 1098.61 500.054C1100.04 499.323 1101.4 498.577 1102.69 497.817L1104.18 496.939L1109.18 494.307C1113.16 492.319 1116.08 490.681 1117.95 489.394C1121.93 486.587 1125.15 483.721 1127.6 480.797C1128.13 480.212 1128.77 479.554 1129.53 478.823C1130.3 478.091 1130.88 477.521 1131.29 477.112C1132.11 477.755 1132.52 478.398 1132.52 479.042C1132.52 479.51 1132.23 480.153 1131.64 480.972C1127.43 486.236 1123.13 490.447 1118.74 493.605C1115.41 495.945 1111.73 498.343 1107.69 500.799L1104.62 502.73C1100.82 505.186 1096.9 506.678 1092.86 507.204Z" fill="#000000" fill-rule="nonzero" opacity="1" stroke="none"/>
<path d="M1127.43 509.397C1125.44 509.397 1123.95 508.549 1122.95 506.853C1121.67 504.981 1121.02 502.934 1121.02 500.712C1121.02 499.659 1121.14 498.694 1121.38 497.817C1122.14 494.775 1123.03 492.07 1124.05 489.701C1125.08 487.333 1126.46 485.183 1128.22 483.253C1128.39 482.259 1128.75 481.44 1129.27 480.797C1129.8 480.153 1130.59 479.334 1131.64 478.34C1133.1 476.995 1134.07 475.854 1134.54 474.918C1134.77 474.392 1135.12 474.1 1135.59 474.041C1136.17 473.983 1136.74 473.807 1137.3 473.515C1137.85 473.222 1138.28 472.959 1138.57 472.725C1138.86 472.491 1139.1 472.316 1139.27 472.199C1140.27 471.438 1140.97 470.97 1141.38 470.795C1143.37 469.625 1145.91 469.099 1149.01 469.216C1150.24 469.274 1151.16 469.859 1151.77 470.97C1152.39 472.082 1152.7 473.544 1152.7 475.357C1152.7 478.808 1151.73 482.317 1149.8 485.885C1146.12 492.67 1142.17 498.489 1137.96 503.344C1136.26 505.215 1134.61 506.692 1133 507.774C1131.39 508.856 1129.53 509.397 1127.43 509.397ZM1127.52 504.309C1130.44 503.081 1133.06 501.194 1135.37 498.65C1137.68 496.106 1139.73 493.24 1141.51 490.052C1143.29 486.865 1145.53 482.493 1148.22 476.936C1148.34 476.527 1148.28 475.913 1148.05 475.094C1147.81 474.275 1147.67 473.661 1147.61 473.252L1145.77 473.953C1144.83 474.304 1144.24 474.538 1144.01 474.655L1144.1 476.849C1144.1 477.316 1144.04 477.667 1143.92 477.901C1143.28 479.247 1142.43 480.212 1141.38 480.797C1141.26 480.855 1141.12 480.884 1140.94 480.884C1140.59 480.884 1140.28 480.694 1140.02 480.314C1139.76 479.934 1139.51 479.539 1139.27 479.13L1139.01 478.954C1137.49 479.948 1136.2 481.074 1135.15 482.332C1134.1 483.589 1132.9 485.242 1131.55 487.289C1131.49 487.406 1131.17 487.903 1130.59 488.78C1129.53 490.476 1128.72 492.289 1128.13 494.22C1127.55 496.15 1127.05 498.401 1126.64 500.975C1126.52 501.443 1126.61 502.028 1126.9 502.73C1127.2 503.431 1127.4 503.958 1127.52 504.309Z" fill="#000000" fill-rule="nonzero" opacity="1" stroke="none"/>
<path d="M1168.4 507.467C1167.17 507.935 1166.09 508.169 1165.15 508.169C1163.52 508.169 1162 507.73 1160.59 506.853C1159.19 505.976 1158.05 504.879 1157.17 503.563C1156.29 502.247 1155.83 500.946 1155.77 499.659C1155.71 499.074 1155.68 498.168 1155.68 496.939C1155.68 491.968 1156.82 486.733 1159.1 481.235L1161.47 475.357C1161.7 474.948 1162.11 474.334 1162.7 473.515C1162.93 473.164 1163.19 472.813 1163.49 472.462C1163.78 472.111 1164.07 471.672 1164.36 471.146C1164.48 470.97 1164.6 470.766 1164.72 470.532C1164.83 470.298 1164.95 470.122 1165.07 470.005C1165.83 468.953 1166.76 468.426 1167.87 468.426C1168.28 468.426 1168.58 468.485 1168.75 468.602C1169.51 469.07 1169.89 469.771 1169.89 470.707C1169.89 471.351 1169.75 471.936 1169.45 472.462C1168.4 474.977 1166.65 478.749 1164.19 483.779C1161.91 488.4 1160.88 493.05 1161.12 497.729C1161.18 499.367 1161.6 500.624 1162.39 501.501C1163.18 502.379 1164.16 502.817 1165.33 502.817C1166.32 502.817 1167.41 502.496 1168.58 501.852C1173.84 498.869 1178.2 495.536 1181.65 491.851L1186.39 486.85C1192.7 480.182 1195.8 476.907 1195.68 477.024C1196.21 476.439 1196.94 475.503 1197.88 474.217L1199.46 472.111C1200.39 470.766 1201.3 470.093 1202.18 470.093C1202.41 470.093 1202.76 470.21 1203.23 470.444C1203.64 470.678 1203.99 471.102 1204.28 471.716C1204.58 472.33 1204.72 472.988 1204.72 473.69C1204.72 474.158 1204.63 474.568 1204.46 474.918C1204.22 475.562 1203.9 476.234 1203.49 476.936C1203.08 477.638 1202.73 478.34 1202.44 479.042C1202.09 479.861 1201.86 480.475 1201.74 480.884C1200.86 482.99 1199.66 486.09 1198.14 490.184C1197.73 491.529 1197.53 492.436 1197.53 492.904C1197.53 493.839 1197.75 494.57 1198.19 495.097C1198.62 495.623 1199.25 495.886 1200.07 495.886C1200.25 495.886 1200.63 495.828 1201.21 495.711C1203.73 495.068 1206.11 494.044 1208.36 492.64C1210.61 491.237 1212.94 489.511 1215.34 487.464C1217.79 485.3 1219.61 483.589 1220.78 482.332C1221.95 481.074 1223.2 479.334 1224.55 477.112C1224.67 476.936 1224.89 476.746 1225.21 476.541C1225.53 476.337 1225.81 476.147 1226.04 475.971C1226.57 476.498 1226.83 477.083 1226.83 477.726C1226.83 478.135 1226.76 478.545 1226.61 478.954C1226.46 479.364 1226.36 479.656 1226.3 479.831C1226.07 480.416 1225.72 481.06 1225.25 481.762C1224.78 482.463 1224.46 482.961 1224.29 483.253C1222.3 485.943 1220.66 487.976 1219.37 489.35C1218.09 490.725 1216.3 492.202 1214.02 493.781C1211.04 495.886 1208.55 497.51 1206.56 498.65C1204.58 499.791 1202.38 500.566 1199.98 500.975C1199.63 501.033 1199.14 501.063 1198.49 501.063C1196.8 501.063 1195.41 500.595 1194.33 499.659C1193.24 498.723 1192.61 497.407 1192.44 495.711C1192.32 494.775 1192.26 494.044 1192.26 493.518L1192.35 490.184C1191.3 490.652 1190.36 491.31 1189.54 492.158C1188.72 493.006 1188.23 493.518 1188.05 493.693C1182.03 499.776 1175.48 504.367 1168.4 507.467Z" fill="#000000" fill-rule="nonzero" opacity="1" stroke="none"/>
<path d="M1237.01 493.605C1236.66 493.547 1236.31 493.284 1235.95 492.816C1235.6 492.348 1235.31 491.851 1235.08 491.324C1234.96 490.973 1234.89 490.608 1234.86 490.228C1234.83 489.848 1234.78 489.453 1234.73 489.043C1233.56 489.745 1232.68 490.096 1232.09 490.096C1231.57 490.096 1231.04 489.921 1230.51 489.57C1229.7 489.043 1229.29 488.312 1229.29 487.376C1229.29 486.85 1229.4 486.177 1229.64 485.359C1230.75 481.147 1231.77 477.872 1232.71 475.533C1234.64 470.561 1236.79 465.604 1239.16 460.662C1241.53 455.72 1244.29 450.236 1247.45 444.212C1250.43 438.305 1253.75 432.427 1257.4 426.578C1261.06 420.729 1265.34 414.237 1270.26 407.101C1272.3 404.118 1274.57 401.004 1277.06 397.758C1279.54 394.512 1281.05 392.567 1281.58 391.924C1284.15 388.648 1286.05 386.192 1287.28 384.554C1288.56 382.916 1290.44 381.045 1292.89 378.939C1293.24 378.53 1293.65 378.193 1294.12 377.93C1294.59 377.667 1295.06 377.535 1295.52 377.535C1295.99 377.535 1296.46 377.711 1296.93 378.062C1297.51 378.588 1297.81 379.173 1297.81 379.816C1297.81 380.46 1297.51 381.308 1296.93 382.361C1295.52 384.817 1293.74 387.771 1291.58 391.222C1288.3 396.837 1284.38 403.329 1279.82 410.698C1272.51 422.805 1267.51 431.228 1264.82 435.965C1259.5 445.382 1255.12 453.409 1251.7 460.048C1248.28 466.686 1245.22 473.485 1242.53 480.446C1241.31 483.487 1240.14 487.055 1239.02 491.149C1238.97 491.383 1238.88 491.748 1238.76 492.246C1238.64 492.743 1238.45 493.108 1238.19 493.342C1237.93 493.576 1237.53 493.664 1237.01 493.605ZM1234.81 488.692C1235.52 487.523 1235.98 486.616 1236.22 485.973C1236.63 485.095 1237.36 483.165 1238.41 480.182C1239.35 477.492 1240.11 475.503 1240.69 474.217L1241.57 472.286C1246.25 462.46 1249.85 455.149 1252.36 450.353C1255.99 443.51 1260.08 436.141 1264.64 428.245C1265.46 426.783 1266.21 425.452 1266.88 424.253C1267.55 423.054 1268.15 421.987 1268.68 421.051L1273.85 411.751C1274.61 410.23 1275.81 408.008 1277.45 405.083C1278.27 404.44 1278.88 403.811 1279.29 403.197C1279.7 402.583 1279.85 401.808 1279.73 400.872L1277.36 405.083C1277.19 405.317 1276.94 405.566 1276.62 405.829C1276.3 406.092 1276.08 406.341 1275.96 406.575C1271.05 414.003 1267.6 419.325 1265.61 422.542C1259.64 431.783 1254.88 439.767 1251.31 446.493C1246.22 456.202 1241.04 467.52 1235.78 480.446C1234.9 482.727 1234.46 484.627 1234.46 486.148C1234.46 487.084 1234.58 487.932 1234.81 488.692ZM1225.16 527.207C1224.81 527.207 1224.42 527.148 1223.98 527.031C1223.54 526.915 1223.32 526.768 1223.32 526.593L1222.97 524.75C1222.44 522.528 1222.18 520.744 1222.18 519.399C1222.18 518.814 1222.36 518.346 1222.71 517.995C1223.06 517.644 1223.5 517.322 1224.02 517.03C1224.55 516.738 1224.96 516.504 1225.25 516.328C1226.42 515.802 1227.56 514.924 1228.67 513.696C1229.08 513.345 1229.61 512.819 1230.25 512.117C1230.89 511.415 1231.52 510.859 1232.14 510.45C1232.75 510.041 1233.44 509.777 1234.2 509.66C1234.32 509.66 1234.57 509.69 1234.95 509.748C1235.33 509.807 1235.69 509.924 1236.04 510.099C1236.51 510.275 1236.96 510.523 1237.4 510.845C1237.84 511.167 1238.03 511.415 1237.97 511.591C1237.91 512.058 1237.69 512.585 1237.31 513.17C1236.93 513.755 1236.63 514.047 1236.39 514.047C1234.58 514.106 1233.44 514.603 1232.97 515.539C1232.5 516.474 1232.27 517.878 1232.27 519.75C1232.15 521.621 1231.38 523.317 1229.94 524.838C1228.51 526.359 1226.92 527.148 1225.16 527.207Z" fill="#000000" fill-rule="nonzero" opacity="1" stroke="none"/>
</g>
</g>
</svg>
